# xmcd
#
# Track frame offsets:
#	150
#	11842
#	24857
#	38075
#	55000
#	67755
#	93842
#	107772
#	120497
#	136982
#	147120
#	159197
#	171230
#	182675
#	194067
#	205010
#	214957
#	225815
#	236522
#	248252
#	260892
#	276147
#
# Disc length: 3835 seconds
#
# Revision: 2
# Processed by: cddbd v1.5.1PL0 Copyright (c) Steve Scherf et al.
# Submitted via: audiograbber 1.83.01
#
DISCID=200ef916
DTITLE=Various Artist - Beach Music Anthology  Disc 4
DYEAR=1900
DGENRE=
TTITLE0=Billy Scott - California
TTITLE1=Intrigues - In A Moment
TTITLE2=Embers - Far Away Places
TTITLE3=Part Time Party Time Band - Party Time Man
TTITLE4=Mel and Tim - Good Guys Only Win
TTITLE5=Don Gardner and Dee Dee Ford - I Need Your Lovin'
TTITLE6=Buster Brown - Fannie Mae
TTITLE7=Jerry Butler - For Your Precious Love
TTITLE8=Gloria Taylor - You're Got To Pay The Price
TTITLE9=Bill Deal and The Rhondels - I've Been Hurt
TTITLE10=O'kaysions - Girlwatcher
TTITLE11=Ernie K-Doe - Mother-In-Law
TTITLE12=Wilbert Harrison - Kansas City
TTITLE13=Tams - Too Much Foolin' Around
TTITLE14=Clifford Curry - She Shot A Hole In My Soul
TTITLE15=Patty and The Emblems - Mixed Up Shook Up Girl
TTITLE16=Barbara Lewis - Think A Little Sugar
TTITLE17=Maurice Williams and The Zodiacs - May I
TTITLE18=Little Anthony and The Imperials - Goin' Out Of My Head
TTITLE19=Monzas - Hey I Know You
TTITLE20=Band Of Oz - Shaggin'
TTITLE21=Doug Clark and The Hot Nuts - Baby Let Me Bang Your Box
EXTD=
EXTT0=
EXTT1=
EXTT2=
EXTT3=
EXTT4=
EXTT5=
EXTT6=
EXTT7=
EXTT8=
EXTT9=
EXTT10=
EXTT11=
EXTT12=
EXTT13=
EXTT14=
EXTT15=
EXTT16=
EXTT17=
EXTT18=
EXTT19=
EXTT20=
EXTT21=
PLAYORDER=
